#!OML:ASF H:\Martial Arts Walks\Project 1\Capture day 1\Session 1\male.ASF
:FULLY-SPECIFIED
:DEGREES
1231
root -0.549253 14.8683 0.135597 12.8601 -13.1939 -5.2075
lowerback 14.1322 4.56103 -4.46996
upperback -2.01651 5.42992 1.30045
thorax -10.7066 2.90163 2.65538
lowerneck -3.13031 -0.213472 -5.4457
upperneck 0.347424 -0.160452 6.21153
head 0.66749 -0.032363 2.93672
rclavicle 1.44119e-015 1.43125e-014
rhumerus 27.8161 50.0748 -65.6342
rradius 43.4724
rwrist 2.65504
rhand -7.42689 -16.8804
rfingers 7.12502
rthumb 18.4602 -46.0244
lclavicle 1.44119e-015 1.43125e-014
lhumerus 101.727 -49.9743 18.7653
lradius 119.383
lwrist 17.3071
lhand 10.3129 29.6964
lfingers 7.12502
lthumb 35.4231 56.1526
rfemur -7.82868 -6.87744 9.31505
rtibia 73.4398
rfoot -6.66739 -26.9742
rtoes 20.2054
lfemur -62.4863 25.3493 -26.6188
ltibia 72.707
lfoot -11.7004 25.0704
ltoes -3.07704
1232
root -0.530933 14.8553 -0.0147358 13.15 -15.0658 -5.62529
lowerback 13.9667 4.7123 -4.29154
upperback -2.17713 5.67392 1.31335
thorax -10.7951 3.01217 2.51395
lowerneck -3.40329 0.203388 -5.35857
upperneck 0.744133 0.394715 5.99193
head 0.805622 0.247728 2.85849
rclavicle -7.85199e-015 -1.27222e-014
rhumerus 29.3867 52.807 -64.4171
rradius 45.1603
rwrist 2.90669
rhand -7.22632 -16.6194
rfingers 7.12502
rthumb 18.6531 -45.7451
lclavicle -7.85199e-015 -1.27222e-014
lhumerus 101.832 -49.3732 18.4386
lradius 120.208
lwrist 15.7559
lhand 9.08668 29.3577
lfingers 7.12502
lthumb 34.2596 56.0835
rfemur -5.97018 -6.38724 7.98058
rtibia 69.3939
rfoot -5.62818 -26.0641
rtoes 17.8911
lfemur -63.2629 26.4723 -26.4379
ltibia 72.7958
lfoot -11.306 25.3117
ltoes -2.37707
1233
root -0.515107 14.8452 -0.164388 13.3683 -17.0488 -6.05735
lowerback 13.8607 4.90286 -4.12424
upperback -2.29578 5.96574 1.32818
thorax -10.8754 3.14455 2.367
lowerneck -3.64501 0.621298 -5.21142
upperneck 1.11862 0.949573 5.73407
head 0.933113 0.526228 2.75811
rclavicle -1.26725e-014 2.94201e-014
rhumerus 30.7875 55.2844 -63.2859
rradius 47.1374
rwrist 3.27408
rhand -6.71316 -16.1358
rfingers 7.12502
rthumb 19.1467 -45.2134
lclavicle -1.26725e-014 2.94201e-014
lhumerus 101.318 -48.9356 18.279
lradius 120.957
lwrist 14.3847
lhand 7.59037 28.2982
lfingers 7.12502
lthumb 32.8375 55.3326
rfemur -4.25871 -5.87209 6.67757
rtibia 65.32
rfoot -4.3811 -24.6093
rtoes 14.8061
lfemur -63.8607 27.6718 -26.1595
ltibia 72.8513
lfoot -10.9551 25.6046
ltoes -1.54415
1234
root -0.502971 14.8392 -0.313787 13.5203 -19.1162 -6.5133
lowerback 13.8077 5.1383 -3.97098
upperback -2.36867 6.31322 1.3493
thorax -10.9411 3.30284 2.21917
lowerneck -3.84615 1.02458 -4.99897
upperneck 1.46413 1.4821 5.45118
head 1.0482 0.792352 2.63844
rclavicle -5.15846e-014 -2.04748e-014
rhumerus 31.8006 57.4563 -62.3766
rradius 49.4803
rwrist 3.78935
rhand -5.86063 -15.4171
rfingers 7.12502
rthumb 19.9663 -44.4113
lclavicle -5.15846e-014 -2.04748e-014
lhumerus 100.247 -48.6801 18.2181
lradius 121.677
lwrist 13.4075
lhand 5.70747 26.6889
lfingers 7.12502
lthumb 31.0445 54.0819
rfemur -2.69778 -5.29023 5.46273
rtibia 61.2804
rfoot -3.19668 -22.7631
rtoes 11.0609
lfemur -64.2554 28.9227 -25.7487
ltibia 72.8612
lfoot -10.6534 25.9464
ltoes -0.569921
1235
root -0.496176 14.8382 -0.46526 13.6657 -21.1958 -7.00432
lowerback 13.7856 5.40282 -3.83851
upperback -2.42681 6.69662 1.38748
thorax -11.0143 3.47948 2.0905
lowerneck -3.98464 1.40403 -4.72567
upperneck 1.78801 1.97848 5.15591
head 1.15052 1.03934 2.50392
rclavicle -1.09431e-013 6.16232e-015
rhumerus 32.1237 59.3146 -61.9174
rradius 52.2493
rwrist 4.48666
rhand -4.69481 -14.4713
rfingers 7.12502
rthumb 21.0866 -43.3448
lclavicle -1.09431e-013 6.16232e-015
lhumerus 98.6514 -48.6497 18.2289
lradius 122.396
lwrist 12.8259
lhand 3.57085 24.7565
lfingers 7.12502
lthumb 29.0059 52.5193
rfemur -1.33439 -4.6302 4.42283
rtibia 57.3513
rfoot -2.24601 -20.7155
rtoes 6.88761
lfemur -64.5057 30.1546 -25.1963
ltibia 72.817
lfoot -10.3216 26.3324
ltoes 0.429657
1236
root -0.49534 14.8419 -0.618479 13.8121 -23.2591 -7.55856
lowerback 13.7951 5.68513 -3.70948
upperback -2.46974 7.10528 1.45491
thorax -11.0942 3.6688 1.98665
lowerneck -4.06023 1.76106 -4.40002
upperneck 2.09701 2.44046 4.86184
head 1.24218 1.26852 2.3605
rclavicle 1.1281e-014 1.78906e-015
rhumerus 31.4843 60.871 -62.1382
rradius 55.4806
rwrist 5.42009
rhand -3.25657 -13.3127
rfingers 7.12502
rthumb 22.4677 -42.0258
lclavicle 1.1281e-014 1.78906e-015
lhumerus 96.5066 -48.8747 18.3462
lradius 123.114
lwrist 12.4927
lhand 1.59665 22.6077
lfingers 7.12502
lthumb 27.1188 50.6796
rfemur -0.160569 -3.83757 3.62266
rtibia 53.6034
rfoot -1.59113 -18.6388
rtoes 2.46582
lfemur -64.5903 31.3341 -24.4506
ltibia 72.7231
lfoot -9.94253 26.7514
ltoes 1.43328
1237
root -0.50132 14.8486 -0.775052 14.0185 -25.2371 -8.21206
lowerback 13.8046 5.95503 -3.55695
upperback -2.51177 7.507 1.56907
thorax -11.1752 3.85505 1.92154
lowerneck -4.09924 2.10106 -4.03742
upperneck 2.42446 2.87604 4.57695
head 1.33794 1.48451 2.21465
rclavicle 6.95746e-016 -5.96354e-015
rhumerus 29.6361 62.1375 -63.2529
rradius 59.1897
rwrist 6.56658
rhand -1.57088 -11.934
rfingers 7.12502
rthumb 24.0849 -40.4425
lclavicle 6.95746e-016 -5.96354e-015
lhumerus 93.7125 -49.3826 18.7028
lradius 123.796
lwrist 12.1275
lhand 0.333444 20.2092
lfingers 7.12502
lthumb 25.9097 48.4637
rfemur 0.802001 -2.91152 3.14239
rtibia 50.1094
rfoot -1.20055 -16.6953
rtoes -1.78594
lfemur -64.5702 32.3974 -23.4819
ltibia 72.5984
lfoot -9.49804 27.1559
ltoes 2.42581
1238
root -0.51427 14.8555 -0.934982 14.324 -27.076 -9.0026
lowerback 13.7863 6.18025 -3.33983
upperback -2.55021 7.86814 1.74361
thorax -11.2322 4.0205 1.89909
lowerneck -4.11582 2.43748 -3.65114
upperneck 2.76413 3.30473 4.3025
head 1.43728 1.69728 2.06972
rclavicle 3.57315e-014 1.09332e-014
rhumerus 26.4861 63.122 -65.3562
rradius 63.3556
rwrist 7.76942
rhand 0.307664 -10.3517
rfingers 7.12502
rthumb 25.885 -38.6098
lclavicle 3.57315e-014 1.09332e-014
lhumerus 90.0859 -50.1683 19.5228
lradius 124.391
lwrist 11.3845
lhand 0.436397 17.4855
lfingers 7.12502
lthumb 26.0083 45.7255
rfemur 1.57146 -1.87475 3.02914
rtibia 46.9179
rfoot -1.0169 -15.0031
rtoes -5.70708
lfemur -64.4842 33.3018 -22.2592
ltibia 72.4736
lfoot -8.9909 27.4927
ltoes 3.40315
1239
root -0.533688 14.8592 -1.09762 14.746 -28.7158 -9.94517
lowerback 13.718 6.32358 -3.01348
upperback -2.58605 8.14839 1.9931
thorax -11.2459 4.14421 1.92378
lowerneck -4.11772 2.78987 -3.27916
upperneck 3.15174 3.75443 4.03567
head 1.55156 1.92047 1.93298
rclavicle -5.70512e-014 8.54774e-015
rhumerus 21.7848 63.8165 -68.6296
rradius 67.9849
rwrist 8.79094
rhand 2.35616 -8.54302
rfingers 7.12502
rthumb 27.8452 -36.4995
lclavicle -5.70512e-014 8.54774e-015
lhumerus 85.3245 -51.1931 21.1694
lradius 124.87
lwrist 10.1931
lhand 2.53133 14.3434
lfingers 7.12502
lthumb 28.0126 42.2727
rfemur 2.19465 -0.798088 3.28939
rtibia 44.0541
rfoot -0.895006 -13.6411
rtoes -9.18223
lfemur -64.3639 34.0044 -20.7745
ltibia 72.3825
lfoot -8.45673 27.6875
ltoes 4.40045
1240
root -0.558808 14.8573 -1.26239 15.2851 -30.1164 -11.0233
lowerback 13.5722 6.36841 -2.55387
upperback -2.60178 8.32703 2.30868
thorax -11.1739 4.2146 1.98262
lowerneck -4.15016 3.16476 -2.91233
upperneck 3.60079 4.2354 3.75371
head 1.6937 2.15916 1.79723
rclavicle 5.76476e-014 5.36719e-015
rhumerus 15.8028 64.1294 -72.8576
rradius 72.9365
rwrist 9.29208
rhand 4.55361 -6.57745
rfingers 7.12502
rthumb 29.9441 -34.1748
lclavicle 5.76476e-014 5.36719e-015
lhumerus 79.2024 -52.3033 23.9329
lradius 125.205
lwrist 8.84895
lhand 6.69296 10.8258
lfingers 7.12502
lthumb 31.9834 38.0351
rfemur 2.71965 0.233085 3.89227
rtibia 41.5121
rfoot -0.842197 -12.6955
rtoes -12.7088
lfemur -64.2471 34.4868 -19.0653
ltibia 72.3495
lfoot -7.90076 27.6879
ltoes 5.33094
1241
root -0.588512 14.8478 -1.42822 15.906 -31.2377 -12.1695
lowerback 13.4076 6.29849 -1.95816
upperback -2.62926 8.37655 2.65761
thorax -11.079 4.21671 2.03696
lowerneck -4.22265 3.56816 -2.53051
upperneck 4.14503 4.75492 3.44192
head 1.8778 2.41672 1.6561
rclavicle -3.07122e-014 3.37934e-015
rhumerus 8.65152 63.9549 -77.949
rradius 78.0807
rwrist 8.97546
rhand 6.85687 -4.58711
rfingers 7.12502
rthumb 32.1394 -31.765
lclavicle -3.07122e-014 3.37934e-015
lhumerus 71.5756 -53.3319 27.9577
lradius 125.326
lwrist 7.79246
lhand 12.1961 7.08209
lfingers 7.12502
lthumb 37.2062 33.093
rfemur 3.20535 1.09665 4.76292
rtibia 39.2671
rfoot -0.850438 -12.3016
rtoes -16.6133
lfemur -64.1686 34.7231 -17.2158
ltibia 72.3865
lfoot -7.29672 27.4748
ltoes 6.07523
1242
root -0.621863 14.8302 -1.59342 16.5369 -32.0868 -13.2938
lowerback 13.2216 6.11965 -1.27836
upperback -2.6464 8.29152 3.02365
thorax -10.9413 4.1502 2.09881
lowerneck -4.35753 4.00386 -2.12614
upperneck 4.77461 5.32023 3.07143
head 2.1073 2.69588 1.50069
rclavicle -5.75482e-014 1.25234e-014
rhumerus 0.805772 63.1625 -83.4386
rradius 83.2574
rwrist 7.67788
rhand 9.24689 -2.71456
rfingers 7.12502
rthumb 34.4117 -29.406
lclavicle -5.75482e-014 1.25234e-014
lhumerus 62.503 -53.9854 33.2068
lradius 125.163
lwrist 7.68126
lhand 18.4008 3.6735
lfingers 7.12502
lthumb 43.0425 27.9044
rfemur 3.71823 1.69625 5.79573
rtibia 37.2776
rfoot -1.08746 -12.5557
rtoes -20.9385
lfemur -64.1233 34.7221 -15.3144
ltibia 72.4982
lfoot -6.67871 27.0428
ltoes 6.61302
1243
root -0.658524 14.8059 -1.75785 17.1397 -32.6659 -14.2967
lowerback 13.0006 5.83611 -0.576217
upperback -2.65806 8.06209 3.37196
thorax -10.7633 4.01291 2.16534
lowerneck -4.56753 4.47079 -1.68223
upperneck 5.46782 5.93024 2.64239
head 2.38091 2.99574 1.32921
rclavicle -7.37491e-014 -2.38542e-014
rhumerus -7.16308 61.6074 -88.7794
rradius 88.2984
rwrist 5.3155
rhand 11.8117 -0.986175
rfingers 7.12502
rthumb 36.8425 -27.0912
lclavicle -7.37491e-014 -2.38542e-014
lhumerus 52.2954 -53.9582 39.394
lradius 124.663
lwrist 9.11786
lhand 25.1635 2.10575
lfingers 7.12502
lthumb 49.3113 23.6827
rfemur 4.26297 1.95312 6.89674
rtibia 35.5039
rfoot -1.60034 -13.5067
rtoes -25.2337
lfemur -64.1681 34.4935 -13.4838
ltibia 72.6842
lfoot -6.04234 26.3362
ltoes 6.8281
